<mxfile host="Electron" modified="2024-02-28T01:01:39.154Z" agent="Mozilla/5.0 (Windows NT 10.0; Win64; x64) AppleWebKit/537.36 (KHTML, like Gecko) draw.io/22.1.16 Chrome/120.0.6099.109 Electron/28.1.0 Safari/537.36" etag="mOeWRtfYFIpxtWLDFuEh" version="22.1.16" type="device">
  <diagram name="Page-1" id="55XoinYsuk6pKicKBzqH">
    <mxGraphModel dx="1934" dy="951" grid="1" gridSize="10" guides="1" tooltips="1" connect="1" arrows="1" fold="1" page="1" pageScale="1" pageWidth="850" pageHeight="1100" math="0" shadow="0">
      <root>
        <mxCell id="0" />
        <mxCell id="1" parent="0" />
        <mxCell id="7o9rlByM8u_Msjmw0q9A-7" value="Adds JS Features" style="edgeStyle=orthogonalEdgeStyle;rounded=0;orthogonalLoop=1;jettySize=auto;html=1;entryX=0.5;entryY=0;entryDx=0;entryDy=0;" edge="1" parent="1" source="7o9rlByM8u_Msjmw0q9A-1" target="7o9rlByM8u_Msjmw0q9A-3">
          <mxGeometry x="0.2747" relative="1" as="geometry">
            <mxPoint as="offset" />
          </mxGeometry>
        </mxCell>
        <mxCell id="7o9rlByM8u_Msjmw0q9A-8" value="Uses" style="edgeStyle=orthogonalEdgeStyle;rounded=0;orthogonalLoop=1;jettySize=auto;html=1;" edge="1" parent="1" source="7o9rlByM8u_Msjmw0q9A-1" target="7o9rlByM8u_Msjmw0q9A-2">
          <mxGeometry relative="1" as="geometry" />
        </mxCell>
        <mxCell id="7o9rlByM8u_Msjmw0q9A-1" value="" style="shape=image;verticalLabelPosition=bottom;labelBackgroundColor=default;verticalAlign=top;aspect=fixed;imageAspect=0;image=https://upload.wikimedia.org/wikipedia/commons/thumb/d/d9/Node.js_logo.svg/2560px-Node.js_logo.svg.png;" vertex="1" parent="1">
          <mxGeometry x="190" y="200" width="196.19" height="120" as="geometry" />
        </mxCell>
        <mxCell id="7o9rlByM8u_Msjmw0q9A-6" value="Compiles to" style="edgeStyle=orthogonalEdgeStyle;rounded=0;orthogonalLoop=1;jettySize=auto;html=1;entryX=0;entryY=0.5;entryDx=0;entryDy=0;" edge="1" parent="1" source="7o9rlByM8u_Msjmw0q9A-2" target="7o9rlByM8u_Msjmw0q9A-5">
          <mxGeometry relative="1" as="geometry" />
        </mxCell>
        <mxCell id="7o9rlByM8u_Msjmw0q9A-2" value="" style="shape=image;verticalLabelPosition=bottom;labelBackgroundColor=default;verticalAlign=top;aspect=fixed;imageAspect=0;image=https://upload.wikimedia.org/wikipedia/commons/thumb/3/3f/V8_JavaScript_engine_logo_2.svg/1200px-V8_JavaScript_engine_logo_2.svg.png;" vertex="1" parent="1">
          <mxGeometry x="178.10000000000002" y="410" width="220" height="220" as="geometry" />
        </mxCell>
        <mxCell id="7o9rlByM8u_Msjmw0q9A-4" value="&amp;nbsp;Written in&amp;nbsp;" style="edgeStyle=orthogonalEdgeStyle;rounded=0;orthogonalLoop=1;jettySize=auto;html=1;" edge="1" parent="1" source="7o9rlByM8u_Msjmw0q9A-3" target="7o9rlByM8u_Msjmw0q9A-2">
          <mxGeometry relative="1" as="geometry" />
        </mxCell>
        <mxCell id="7o9rlByM8u_Msjmw0q9A-3" value="C++" style="rounded=0;whiteSpace=wrap;html=1;" vertex="1" parent="1">
          <mxGeometry x="-70" y="505" width="100" height="30" as="geometry" />
        </mxCell>
        <mxCell id="7o9rlByM8u_Msjmw0q9A-5" value="Machine Code" style="rounded=0;whiteSpace=wrap;html=1;" vertex="1" parent="1">
          <mxGeometry x="510" y="505" width="100" height="30" as="geometry" />
        </mxCell>
        <mxCell id="7o9rlByM8u_Msjmw0q9A-10" value="Compiles JavaScript" style="edgeStyle=orthogonalEdgeStyle;rounded=0;orthogonalLoop=1;jettySize=auto;html=1;" edge="1" parent="1" source="7o9rlByM8u_Msjmw0q9A-9" target="7o9rlByM8u_Msjmw0q9A-2">
          <mxGeometry relative="1" as="geometry" />
        </mxCell>
        <mxCell id="7o9rlByM8u_Msjmw0q9A-9" value="" style="shape=image;verticalLabelPosition=bottom;labelBackgroundColor=default;verticalAlign=top;aspect=fixed;imageAspect=0;image=https://upload.wikimedia.org/wikipedia/commons/thumb/6/6a/JavaScript-logo.png/768px-JavaScript-logo.png;" vertex="1" parent="1">
          <mxGeometry x="208.09" y="720" width="160" height="160" as="geometry" />
        </mxCell>
      </root>
    </mxGraphModel>
  </diagram>
</mxfile>
